<?xml version="1.0" standalone="no"?>
<!DOCTYPE svg PUBLIC "-//W3C//DTD SVG 20010904//EN"
 "http://www.w3.org/TR/2001/REC-SVG-20010904/DTD/svg10.dtd">
<svg version="1.0" xmlns="http://www.w3.org/2000/svg"
 width="1200.000000pt" height="857.000000pt" viewBox="0 0 1200.000000 857.000000"
 preserveAspectRatio="xMidYMid meet">
<metadata>
Created by potrace 1.16, written by Peter Selinger 2001-2019
</metadata>
<g transform="translate(0.000000,857.000000) scale(0.100000,-0.100000)"
fill="#000000" stroke="none">
<path d="M10191 6379 c-66 -97 -175 -177 -351 -259 -99 -46 -146 -77 -221
-146 -67 -62 -75 -63 -186 -32 -92 25 -195 26 -301 4 -87 -19 -152 -20 -187
-4 -15 7 -64 68 -123 155 -62 91 -102 142 -112 141 -31 -6 -38 -138 -14 -256
21 -102 57 -194 154 -391 80 -161 81 -163 64 -190 -10 -14 -48 -70 -86 -123
-65 -92 -73 -99 -141 -132 -95 -45 -163 -58 -262 -51 -98 7 -113 0 -91 -43 9
-17 29 -40 46 -52 29 -21 152 -56 285 -81 39 -7 72 -14 74 -15 5 -4 -102 -145
-130 -171 -14 -12 -49 -33 -80 -46 -30 -14 -61 -32 -69 -41 -12 -15 -10 -20 9
-39 20 -20 31 -22 141 -22 l120 0 -1 -25 c-1 -50 -25 -269 -29 -272 -3 -2 -24
-16 -47 -31 -87 -55 -105 -145 -84 -409 12 -143 26 -221 51 -268 21 -42 72
-89 107 -101 18 -6 33 -15 33 -20 0 -12 0 -12 -50 6 -23 8 -46 15 -50 15 -12
0 -18 -49 -30 -215 -6 -82 -17 -201 -26 -264 -25 -176 -11 -215 101 -272 61
-31 67 -33 79 -17 11 14 76 539 76 610 0 15 -14 43 -35 68 -19 23 -35 47 -35
54 0 15 48 62 55 55 2 -3 23 -55 46 -115 65 -176 114 -259 200 -345 118 -118
232 -170 527 -244 323 -80 545 -71 716 29 59 34 160 129 228 212 28 35 56 63
60 62 5 -2 18 -18 29 -36 l21 -32 -44 0 c-23 0 -49 -4 -57 -9 -22 -14 -29
-100 -30 -336 -1 -177 2 -214 15 -233 24 -34 164 -142 184 -142 43 0 45 18 43
327 l-2 294 -31 42 c-16 22 -30 44 -30 47 0 4 29 16 63 29 35 12 80 36 100 52
82 68 174 232 213 382 19 75 14 168 -12 217 -19 36 -24 113 -10 164 l7 28 67
-8 c37 -5 128 -9 202 -9 130 0 137 1 195 30 32 17 61 35 62 41 2 6 -13 14 -35
17 -95 16 -229 113 -273 198 -22 44 -25 84 -6 76 78 -30 223 -69 272 -74 50
-4 71 -1 110 16 50 22 85 48 85 62 0 5 -17 13 -37 18 -21 6 -64 17 -95 26 -78
21 -155 92 -203 187 -41 82 -43 116 -19 277 9 61 13 127 9 157 -7 61 -45 145
-85 191 -17 18 -30 39 -30 45 0 5 15 31 34 57 47 64 66 127 66 220 0 62 -4 84
-19 102 -15 19 -21 21 -34 11 -8 -7 -20 -26 -27 -43 -17 -40 -81 -73 -126 -64
-19 3 -34 10 -34 15 0 5 32 44 70 86 78 86 107 140 145 269 28 99 30 124 12
149 -13 17 -15 17 -45 2 -20 -10 -41 -35 -57 -65 -50 -100 -183 -181 -310
-189 -114 -7 -203 25 -328 121 -61 47 -239 136 -373 187 l-111 42 44 111 c49
123 63 199 43 247 -7 16 -15 30 -19 30 -3 0 -21 -23 -40 -51z m-637 -884 c21
-49 40 -96 43 -102 4 -10 -10 -13 -53 -13 -92 -1 -191 -18 -284 -50 -97 -33
-120 -27 -75 20 38 40 110 65 220 79 50 6 93 11 97 11 4 0 -11 37 -32 82 -56
114 -53 151 14 226 l21 24 6 -94 c5 -77 12 -109 43 -183z m1276 2 c0 -9 -33
-17 -112 -25 -166 -18 -313 -56 -413 -107 -47 -23 -87 -39 -90 -36 -8 14 86
101 137 127 78 39 157 52 326 53 118 1 152 -2 152 -12z m-1107 -216 c3 -16 12
-31 20 -34 7 -3 54 -1 103 5 121 14 363 4 439 -17 37 -10 72 -28 92 -47 28
-27 35 -29 62 -20 17 6 33 7 36 2 3 -5 -19 -75 -50 -156 -53 -142 -62 -182
-29 -136 11 16 26 22 52 22 20 0 44 5 52 10 11 7 2 10 -32 10 -32 0 -48 4 -47
13 0 6 17 53 37 102 29 70 42 91 58 93 32 5 36 -22 14 -80 -11 -28 -17 -55
-14 -60 3 -4 18 -8 35 -8 34 0 33 2 14 -43 -9 -21 -11 -38 -5 -42 8 -5 23 23
67 123 l14 34 51 -106 c29 -58 49 -108 46 -111 -3 -3 -91 -10 -194 -16 -217
-12 -257 -16 -249 -30 4 -5 13 -6 23 0 10 5 74 9 143 8 108 -2 126 -4 121 -17
-10 -28 -24 -40 -47 -40 -13 0 -30 -3 -39 -6 -34 -13 -13 -19 53 -16 62 4 70
2 80 -16 9 -18 8 -21 -12 -24 -13 -2 14 -13 65 -26 49 -14 94 -32 104 -43 27
-30 44 -145 50 -349 7 -210 -6 -340 -57 -568 -16 -74 -28 -137 -25 -139 4 -4
142 81 161 100 7 6 -12 8 -53 4 l-62 -5 17 30 c10 17 31 41 46 54 50 43 91 29
134 -44 59 -100 25 -267 -89 -438 -52 -77 -87 -104 -136 -104 -48 0 -76 40
-82 117 l-5 65 -85 -113 c-151 -201 -264 -295 -420 -351 -58 -20 -82 -23 -230
-23 -139 1 -180 5 -260 24 -176 44 -374 132 -522 232 -122 83 -213 246 -260
464 -16 78 -16 398 1 530 34 273 124 586 229 803 103 214 190 286 451 373 64
21 119 38 122 39 4 0 9 -13 12 -29z m882 -242 c0 -20 -6 -25 -32 -27 -39 -4
-41 3 -11 35 26 28 43 25 43 -8z m409 -157 c97 -46 194 -143 226 -227 9 -24
-6 -13 -77 56 -97 95 -171 148 -259 185 l-59 25 54 -5 c29 -3 81 -18 115 -34z
m-314 -83 c50 -11 51 -12 45 -40 -4 -17 -2 -29 3 -29 6 0 18 -7 26 -16 19 -19
22 -78 4 -72 -7 3 -38 13 -68 23 -30 10 -57 19 -59 21 -2 1 7 17 20 35 l22 32
-46 -7 c-43 -7 -47 -5 -47 13 0 15 33 51 47 51 1 0 25 -5 53 -11z m310 -295
c25 -13 55 -31 67 -41 38 -32 73 -94 73 -130 l0 -35 -37 31 c-21 17 -81 71
-133 120 l-95 90 40 -6 c22 -3 60 -16 85 -29z m-2200 -342 c44 -46 64 -90 53
-118 -3 -8 -27 3 -69 33 -36 25 -67 43 -70 41 -2 -3 -7 -74 -10 -159 l-6 -154
28 -54 c16 -30 36 -57 43 -59 11 -4 12 0 6 14 -33 79 -37 103 -33 202 3 56 7
105 11 108 14 14 58 -8 73 -38 14 -27 15 -54 9 -197 -8 -187 -13 -201 -75
-201 -47 0 -65 14 -88 71 -42 99 -54 179 -50 331 4 153 16 194 62 217 43 20
68 12 116 -37z m-77 -793 c46 -24 67 -52 67 -88 1 -62 -43 -470 -52 -483 -11
-18 -79 19 -95 52 -11 24 1 163 43 483 7 52 7 52 37 36z m1981 -424 c21 -20
24 -33 31 -144 8 -127 -2 -388 -14 -395 -12 -8 -83 37 -104 65 -17 24 -20 49
-24 236 -3 116 -3 222 1 236 10 41 67 42 110 2z"/>
<path d="M9253 4718 c-38 -12 -43 -35 -10 -43 12 -2 128 -11 257 -19 244 -16
260 -14 260 25 0 23 -13 26 -179 39 -165 12 -285 11 -328 -2z"/>
<path d="M10285 4660 c-113 -16 -73 -39 162 -94 137 -32 193 -41 207 -34 30
16 -1 37 -89 59 -43 11 -97 30 -119 41 -49 26 -107 36 -161 28z"/>
<path d="M9310 4452 c-49 -24 -65 -61 -46 -106 15 -35 59 -66 94 -66 29 0 70
37 77 69 9 40 -18 99 -50 111 -34 13 -34 13 -75 -8z"/>
<path d="M10315 4365 c-39 -21 -55 -42 -55 -78 0 -39 15 -64 50 -82 44 -23 78
-19 111 14 45 46 32 123 -26 149 -34 16 -44 15 -80 -3z"/>
<path d="M9730 3748 c-87 -24 -142 -104 -143 -207 0 -68 22 -115 64 -137 17
-8 114 -28 216 -44 203 -31 236 -29 285 18 36 33 51 82 43 135 -15 93 -71 170
-145 201 -92 38 -247 55 -320 34z m215 -63 c73 -19 159 -70 174 -102 6 -13 11
-40 11 -59 l0 -36 -31 27 c-18 14 -55 38 -83 53 -46 24 -61 27 -161 27 -60 0
-127 -4 -147 -8 -37 -8 -38 -7 -38 21 0 43 21 63 81 77 73 18 124 18 194 0z"/>
<path d="M10866 3528 c-26 -122 -55 -180 -101 -202 -43 -21 -35 -39 16 -39 41
0 81 44 109 121 23 61 26 159 7 186 -12 16 -15 8 -31 -66z"/>
<path d="M1660 6313 c0 -51 40 -160 77 -214 17 -24 54 -70 81 -101 41 -47 52
-66 56 -105 8 -62 35 -218 42 -241 3 -9 -8 7 -25 35 -49 83 -62 88 -226 88
-157 0 -140 5 -395 -118 -144 -70 -187 -81 -301 -75 -85 4 -96 7 -191 56 -56
29 -103 50 -106 48 -8 -9 19 -72 62 -147 77 -131 155 -195 326 -267 22 -9 23
-11 4 -11 -28 -1 -62 -36 -84 -86 -62 -145 -136 -372 -125 -384 3 -2 28 14 57
36 29 21 60 43 68 48 13 8 13 7 0 -10 -41 -50 -200 -145 -293 -175 -59 -19
-171 -8 -247 23 -76 31 -94 24 -66 -27 72 -133 229 -246 392 -280 36 -8 67
-16 70 -18 4 -4 -31 -85 -92 -214 -31 -64 -95 -76 -253 -47 l-35 6 50 -57 c71
-83 148 -119 268 -124 50 -2 96 -8 102 -14 7 -5 15 -24 18 -43 4 -19 23 -83
42 -142 40 -120 52 -137 160 -218 l71 -54 37 -108 c149 -434 347 -641 704
-735 121 -32 368 -32 483 0 133 36 233 81 299 134 80 65 67 84 -21 29 -220
-137 -628 -160 -880 -48 -178 78 -326 216 -418 388 -82 152 -121 288 -181 628
-45 252 -47 261 -62 261 -13 0 -4 -164 18 -329 8 -62 13 -116 10 -118 -3 -3
-13 -3 -22 1 -13 5 -15 14 -10 41 l7 34 -30 -10 c-74 -26 -114 8 -151 129 -44
141 -5 404 65 442 52 28 97 9 134 -57 5 -10 12 -15 15 -13 3 3 10 69 16 145
17 207 39 301 118 497 38 95 77 198 87 228 26 81 75 151 183 262 100 103 152
141 211 153 18 4 115 38 215 76 99 39 203 73 231 76 l49 6 -18 -27 c-9 -15
-16 -29 -14 -32 2 -2 30 -6 61 -10 l57 -7 0 59 c0 87 -36 152 -159 289 -57 64
-100 119 -97 123 29 28 217 -151 268 -255 29 -60 33 -77 33 -149 l0 -82 75
-22 c41 -12 81 -26 88 -32 6 -6 12 -27 12 -47 0 -20 7 -58 15 -85 8 -27 15
-60 15 -74 l0 -24 -19 23 c-24 30 -36 21 -20 -15 9 -19 20 -26 41 -26 23 0 28
4 28 25 0 25 1 25 49 19 l50 -6 -14 58 c-7 32 -12 60 -10 62 2 2 18 1 36 -3
30 -7 31 -8 15 -21 -18 -12 -17 -14 8 -26 l27 -12 -23 -18 -23 -17 29 -28 c26
-26 27 -26 16 -5 -17 33 -7 38 48 21 34 -11 46 -20 44 -32 -2 -11 4 -17 18
-17 13 0 24 -10 31 -27 6 -15 26 -47 46 -71 42 -51 74 -127 148 -347 74 -221
89 -320 82 -549 -12 -400 -116 -762 -326 -1135 -53 -94 -59 -111 -40 -111 34
0 171 189 234 323 48 100 92 143 159 154 52 8 56 -14 10 -53 -32 -28 -36 -35
-24 -44 31 -20 46 -14 157 66 99 71 124 75 249 39 11 -3 3 2 -16 11 -56 26
-160 53 -178 47 -9 -3 -30 -16 -47 -28 -43 -31 -56 -34 -88 -18 l-28 14 35 62
c50 91 77 187 83 302 3 55 10 105 14 111 5 6 44 26 87 45 122 52 158 83 110
93 -170 35 -188 51 -241 211 -24 70 -33 113 -27 119 5 5 39 13 74 17 104 13
185 65 261 169 45 61 44 71 -2 54 -59 -21 -159 -17 -223 9 -62 25 -78 54 -79
138 -2 111 -40 250 -88 321 -56 81 -82 147 -92 233 -21 184 -101 282 -250 302
l-43 6 5 -99 c5 -87 5 -91 -3 -34 -26 177 -32 209 -55 256 -51 104 -155 193
-271 232 -32 11 -129 30 -214 41 -85 11 -188 30 -229 41 -104 29 -323 139
-398 200 -34 27 -64 50 -67 50 -3 0 -6 -17 -6 -37z m969 -640 c30 -37 61 -118
61 -161 0 -23 -2 -24 -14 -12 -13 15 -136 217 -136 225 0 15 65 -23 89 -52z
m-991 -199 c12 -4 22 -10 22 -14 0 -16 -234 -64 -315 -64 -79 0 -155 17 -155
35 0 5 19 10 43 10 23 1 89 3 147 4 63 2 121 9 145 18 44 17 78 20 113 11z
m1416 -60 c9 -25 7 -90 -5 -121 -10 -28 -57 -83 -70 -83 -4 0 -5 19 -2 43 13
126 56 215 77 161z m-404 -94 c0 -61 -16 -66 -22 -7 -5 45 -2 57 13 57 5 0 9
-22 9 -50z m539 -201 c1 -26 -6 -69 -15 -96 -16 -49 -48 -102 -58 -93 -4 5 36
206 51 255 l6 20 8 -20 c4 -11 8 -41 8 -66z m-1919 -293 c0 -25 -69 -103 -124
-140 -31 -20 -80 -45 -109 -55 -65 -23 -156 -37 -142 -23 9 9 366 231 373 232
1 0 2 -6 2 -14z m-306 -614 c-11 -15 -36 -35 -55 -44 -41 -21 -129 -35 -129
-21 0 9 192 102 199 96 3 -2 -4 -16 -15 -31z m2361 -264 c22 -19 27 -34 32
-93 7 -89 -13 -170 -68 -275 l-40 -78 -35 20 c-19 11 -34 24 -34 29 0 4 27 37
60 72 59 64 71 94 51 126 -7 11 -16 1 -37 -42 -30 -61 -49 -75 -40 -29 3 15
15 83 26 151 23 146 35 162 85 119z"/>
<path d="M5718 6323 c-9 -10 -32 -52 -51 -93 -38 -84 -84 -142 -131 -167 -17
-9 -93 -45 -168 -79 -212 -95 -381 -202 -441 -279 -52 -66 -61 -100 -62 -226
l0 -116 -86 -84 c-109 -105 -137 -158 -194 -361 -25 -91 -59 -123 -174 -158
-53 -16 -145 -43 -205 -58 -132 -34 -143 -45 -100 -99 78 -96 209 -161 378
-186 53 -8 103 -20 109 -26 15 -15 -3 -102 -39 -182 -36 -79 -90 -126 -188
-162 -93 -34 -101 -57 -33 -87 33 -15 245 -50 299 -50 4 0 0 -19 -8 -42 -35
-101 -27 -212 24 -332 63 -150 134 -216 229 -216 l50 0 17 -122 c52 -365 102
-598 135 -631 20 -21 21 -21 42 -1 33 29 59 93 59 148 0 40 -30 185 -71 345
-4 19 -7 36 -6 37 1 1 36 -27 77 -64 144 -126 318 -224 495 -278 122 -37 307
-39 465 -5 158 34 311 88 408 145 106 62 241 193 295 286 43 75 82 189 92 274
13 104 68 126 80 33 14 -113 127 -682 137 -695 13 -15 50 -9 86 14 35 23 29
76 -47 428 l-69 320 38 45 c87 105 115 207 107 395 l-6 128 88 -7 c49 -4 91
-3 94 2 3 4 -11 26 -30 48 -87 100 -203 270 -203 298 0 2 64 7 143 10 86 4
164 13 197 22 59 18 150 64 150 75 0 4 -93 63 -207 131 -115 67 -214 127 -220
132 -10 7 4 22 50 57 119 90 239 237 279 342 16 42 26 138 14 138 -3 0 -37
-18 -78 -39 -85 -46 -171 -71 -243 -71 -63 1 -85 13 -126 70 -94 132 -205 232
-321 291 -32 16 -58 31 -58 34 0 2 13 25 29 51 17 25 37 76 45 113 21 91 55
376 49 401 -10 37 -41 21 -104 -52 -85 -98 -151 -153 -238 -196 -66 -33 -83
-37 -170 -40 -91 -4 -102 -2 -206 34 -104 37 -116 39 -225 38 -83 0 -127 -5
-159 -17 -24 -10 -46 -15 -48 -13 -2 2 0 46 6 98 11 99 2 198 -22 245 -12 23
-14 23 -29 6z m602 -623 l45 -25 -175 -6 c-186 -7 -209 -12 -417 -97 -29 -12
-53 -18 -53 -13 0 16 80 79 135 105 97 48 188 66 310 63 95 -2 116 -6 155 -27z
m-128 -310 c58 -17 153 -74 152 -93 -2 -24 -146 -247 -159 -247 -8 0 -16 38
-24 108 -15 130 -21 156 -32 145 -13 -13 -14 -64 -5 -189 l8 -112 -30 -33 -30
-34 -6 25 c-3 14 -17 97 -31 185 -33 209 -34 215 -51 215 -20 0 -19 -11 26
-378 41 -327 49 -372 71 -372 9 0 10 28 6 106 -7 102 -6 106 18 130 13 13 28
24 33 24 5 0 13 -28 18 -62 14 -93 34 -88 34 9 0 93 3 99 121 233 46 53 98
113 115 134 l31 39 42 -45 c106 -115 169 -224 226 -388 38 -110 122 -505 149
-698 28 -200 17 -407 -38 -681 -27 -138 -57 -191 -166 -302 -122 -124 -268
-202 -482 -258 -292 -77 -469 -66 -693 46 -289 144 -435 309 -499 563 -22 88
-67 434 -82 643 l-7 87 65 -30 65 -30 114 15 c63 8 134 15 159 14 49 0 52 2
-54 -44 -33 -14 -57 -28 -54 -31 5 -4 275 101 286 111 7 6 -48 84 -65 94 -10
5 -121 16 -248 26 -290 21 -280 16 -271 134 4 47 14 120 22 162 27 145 93 314
125 324 12 4 46 -8 92 -33 186 -102 310 -162 335 -162 25 0 22 4 -41 68 -37
37 -67 71 -67 76 0 9 39 2 82 -16 47 -18 65 -62 93 -228 29 -172 51 -253 68
-247 21 7 19 78 -7 201 -14 66 -43 245 -66 396 -22 151 -43 291 -46 311 -6 41
12 62 48 57 21 -3 24 -17 84 -393 61 -380 85 -495 104 -495 18 0 11 60 -52
478 -48 322 -59 415 -50 424 7 7 49 15 95 19 137 10 430 10 469 -1z m-720
-260 c15 -102 27 -196 28 -208 0 -22 -11 -18 -177 68 -98 51 -182 96 -187 100
-26 25 43 121 120 166 54 32 143 64 169 61 17 -2 22 -22 47 -187z m-462 61 c0
-28 -15 -34 -47 -19 -36 17 -56 60 -47 100 l6 32 44 -46 c24 -26 44 -56 44
-67z m1799 68 c101 -23 214 -96 247 -160 8 -16 14 -31 14 -34 0 -5 -360 174
-390 195 -20 13 69 13 129 -1z m-1754 -990 c145 -25 159 -29 124 -39 -39 -11
-235 -23 -258 -15 -21 6 -27 29 -15 59 8 20 5 20 149 -5z m2111 -133 c22 -25
44 -120 44 -187 0 -111 -55 -259 -111 -301 -41 -31 -100 -51 -122 -42 -15 5
-17 27 -17 173 0 166 0 168 25 191 24 22 26 23 44 6 25 -23 45 -106 38 -162
-2 -24 -16 -62 -31 -84 -14 -22 -26 -44 -26 -49 0 -16 38 0 77 34 l38 33 0 88
c-1 49 -7 122 -14 162 -15 84 -25 89 -89 42 -52 -38 -62 -38 -62 0 0 60 28 92
110 123 27 11 75 -3 96 -27z m-2328 -228 c7 -7 12 -34 12 -61 l0 -49 -30 6
c-16 3 -43 9 -58 12 l-29 6 19 -104 c10 -56 23 -117 29 -135 9 -29 66 -83 87
-83 24 0 62 -43 62 -70 0 -24 -5 -30 -30 -35 -35 -8 -55 3 -113 59 -117 115
-152 374 -60 446 29 22 92 27 111 8z m21 -172 c15 -18 57 -213 48 -223 -14
-13 -67 51 -87 104 -19 52 -27 133 -14 146 8 8 36 -7 53 -27z m2254 -343 c16
-71 46 -209 68 -308 37 -168 42 -225 19 -225 -5 0 -14 17 -19 38 -17 66 -99
465 -105 517 -4 28 -9 62 -12 78 -4 19 -1 27 8 27 9 0 22 -41 41 -127z m-2069
-370 c21 -69 76 -280 76 -291 0 -8 -5 -12 -12 -10 -8 3 -73 237 -88 316 0 1 4
2 9 2 5 0 12 -8 15 -17z"/>
<path d="M5675 5298 c7 -65 72 -511 99 -677 15 -88 27 -121 47 -121 17 0 9 89
-36 419 -46 336 -70 441 -102 441 -12 0 -14 -10 -8 -62z"/>
<path d="M5820 5353 c0 -58 114 -806 126 -824 3 -5 12 -9 20 -9 19 0 19 73 -1
176 -8 44 -33 202 -55 353 -23 151 -45 283 -51 293 -9 17 -39 26 -39 11z"/>
<path d="M6404 4849 c-17 -5 -43 -20 -59 -35 l-28 -25 34 -28 c31 -27 35 -27
75 -15 92 27 118 58 80 93 -24 22 -51 25 -102 10z"/>
<path d="M5123 4670 c-38 -23 -37 -20 -19 -65 20 -47 53 -66 122 -68 l59 -2 3
34 c5 52 -14 78 -75 101 -30 11 -55 20 -56 20 -1 0 -17 -9 -34 -20z"/>
<path d="M6680 4548 c-101 -45 -187 -59 -380 -64 -102 -3 -195 -7 -207 -10
-39 -8 -26 -32 29 -50 43 -14 74 -16 182 -11 72 4 145 9 161 12 17 2 3 -4 -30
-16 -33 -11 -103 -27 -155 -35 -52 -8 -111 -22 -130 -31 -33 -14 -34 -15 -15
-30 43 -32 259 9 457 87 112 45 171 77 163 90 -3 5 -20 4 -37 -1 -17 -5 -34
-6 -37 -4 -2 3 0 5 6 5 15 0 73 55 73 69 0 16 -29 12 -80 -11z"/>
<path d="M5772 4343 c2 -46 7 -59 21 -61 23 -5 31 19 23 73 -6 36 -11 45 -27
45 -18 0 -20 -6 -17 -57z"/>
<path d="M6523 4326 c-122 -28 -225 -55 -229 -59 -4 -4 22 -7 58 -7 l64 0 -4
-110 c-5 -127 9 -183 59 -224 43 -36 107 -52 139 -35 40 22 70 93 70 165 0 51
-33 194 -44 194 -2 0 -1 -49 2 -108 4 -96 2 -112 -17 -149 -32 -64 -81 -82
-116 -43 -19 21 -64 208 -65 268 0 39 -3 37 175 87 77 21 138 44 150 55 19 20
19 20 0 19 -11 -1 -120 -25 -242 -53z"/>
<path d="M5900 4059 c-167 -39 -333 -64 -492 -75 -49 -3 -88 -9 -88 -13 0 -4
30 -46 66 -92 145 -183 223 -315 349 -588 41 -91 83 -173 92 -183 28 -31 36
-10 28 73 -3 44 -4 79 -1 79 3 0 15 -18 26 -40 20 -39 33 -49 44 -32 16 26
-210 579 -257 630 -31 33 -42 13 -24 -47 8 -28 13 -51 12 -51 -2 0 -26 40 -53
89 l-49 89 31 6 c17 3 135 21 262 41 196 29 240 33 285 25 97 -19 147 -67 221
-215 54 -106 86 -220 104 -367 9 -73 18 -135 21 -138 2 -3 13 5 23 17 28 35
35 160 15 258 -57 274 -206 521 -338 560 -69 20 -87 19 -277 -26z"/>
<path d="M5087 3803 c-4 -3 -7 -33 -7 -65 0 -52 4 -63 29 -89 36 -36 88 -40
116 -9 24 27 23 85 -2 118 -35 47 -43 39 -36 -35 l6 -68 -24 16 c-23 16 -41
53 -53 112 -6 26 -16 34 -29 20z"/>
<path d="M6185 3770 c-7 -12 -4 -26 40 -145 18 -49 43 -132 55 -182 15 -58 29
-93 37 -93 22 0 26 -14 -83 348 -24 78 -35 95 -49 72z"/>
<path d="M5743 3765 c92 -223 252 -583 258 -579 38 23 -138 455 -223 547 -22
23 -38 38 -35 32z"/>
<path d="M5830 3748 c0 -13 15 -55 33 -93 18 -39 55 -123 81 -187 27 -65 53
-118 58 -118 11 0 8 10 -48 170 -70 199 -81 224 -103 238 -19 13 -21 13 -21
-10z"/>
<path d="M6098 3755 c-5 -5 87 -263 98 -274 2 -2 7 -1 10 2 4 4 -14 62 -41
129 -53 139 -59 151 -67 143z"/>
<path d="M6240 3753 c-1 -22 115 -332 121 -326 9 10 -100 333 -112 333 -5 0
-9 -3 -9 -7z"/>
<path d="M6063 3655 c4 -16 9 -41 12 -55 4 -15 -3 -7 -16 18 -37 72 -38 46 -3
-49 19 -51 34 -93 34 -95 0 -2 5 -4 11 -4 6 0 8 7 5 17 -4 10 -3 14 1 9 4 -4
15 -26 24 -48 8 -22 19 -38 25 -36 5 2 8 8 6 13 -2 6 -22 62 -44 125 -41 115
-66 164 -55 105z"/>
<path d="M6014 3586 c13 -51 68 -186 76 -186 5 0 -7 47 -27 105 -20 58 -41
105 -46 105 -5 0 -6 -11 -3 -24z"/>
<path d="M6592 3570 c-22 -46 -27 -86 -14 -107 19 -29 99 -35 140 -9 18 11 23
56 11 99 l-12 42 -9 -37 c-5 -20 -18 -44 -29 -54 -18 -17 -21 -17 -36 -1 -10
9 -20 38 -23 64 l-7 48 -21 -45z"/>
<path d="M6010 3459 c0 -22 48 -161 60 -173 15 -15 12 2 -16 89 -26 80 -44
113 -44 84z"/>
<path d="M5293 3365 c-31 -56 -23 -154 17 -190 10 -9 40 -20 66 -23 38 -4 50
-1 61 13 16 23 17 64 2 102 l-11 28 -19 -42 c-20 -47 -21 -48 -50 -32 -24 13
-39 48 -48 114 -6 44 -8 48 -18 30z"/>
<path d="M1945 5275 c7 -47 9 -82 5 -78 -3 4 -19 38 -34 76 -26 62 -46 86 -46
54 0 -7 11 -82 25 -167 29 -177 63 -317 99 -414 38 -100 116 -246 132 -246 23
0 17 68 -15 187 -23 84 -96 405 -149 651 -2 12 -10 22 -16 22 -9 0 -9 -20 -1
-85z"/>
<path d="M2135 5261 c-3 -15 -4 -106 -1 -201 5 -132 10 -179 21 -197 35 -52
54 -3 36 92 -6 34 -11 117 -11 183 0 66 -3 127 -6 136 -10 26 -32 18 -39 -13z"/>
<path d="M2566 5058 c-26 -62 -54 -124 -62 -138 -15 -24 -15 -23 -9 20 4 27 2
41 -3 35 -11 -12 -55 -186 -48 -192 3 -3 18 4 34 15 61 44 189 372 144 372 -4
0 -29 -51 -56 -112z"/>
<path d="M2809 5147 c-23 -10 -25 -16 -18 -35 9 -24 45 -42 85 -42 13 0 24 -6
24 -13 0 -7 -24 -49 -52 -92 -35 -53 -120 -148 -252 -282 -110 -112 -197 -205
-194 -208 20 -21 412 332 486 436 33 48 62 121 62 158 l0 41 -39 0 c-22 0 -41
-4 -43 -9 -2 -5 -14 -4 -28 1 l-25 9 23 19 c38 31 22 40 -29 17z"/>
<path d="M1620 4847 c0 -10 16 -49 35 -87 19 -38 35 -74 35 -80 0 -18 -18 -11
-25 9 -7 25 -75 91 -92 91 -20 0 -16 -21 18 -99 33 -73 49 -89 49 -47 0 14 4
27 9 30 5 4 56 -44 113 -105 90 -97 155 -149 187 -149 5 0 -22 30 -60 66 -67
65 -142 169 -209 289 -18 33 -39 69 -47 80 -12 17 -13 17 -13 2z"/>
<path d="M2835 4495 c-93 -46 -163 -84 -155 -84 32 -1 128 30 195 64 65 32
163 105 140 104 -5 0 -86 -38 -180 -84z"/>
<path d="M2935 4484 c-78 -46 -85 -54 -53 -54 17 0 43 16 75 45 26 24 46 44
43 44 -3 0 -32 -16 -65 -35z"/>
<path d="M1718 4450 c-33 -26 -54 -78 -83 -214 -72 -334 -82 -743 -25 -1067
26 -150 37 -187 65 -215 35 -35 74 -30 173 21 104 53 183 75 272 75 106 0 178
-17 251 -61 72 -43 113 -49 128 -20 6 10 22 130 35 267 14 137 45 403 68 590
35 281 40 345 29 357 -10 13 -41 16 -189 15 -197 -1 -277 11 -417 64 -71 27
-89 40 -155 108 -64 67 -106 100 -123 100 -2 0 -16 -9 -29 -20z m197 -175 c14
-13 25 -31 25 -40 0 -18 11 -20 27 -4 7 7 35 3 94 -15 198 -59 245 -69 373
-75 106 -5 131 -9 140 -23 7 -13 1 -75 -23 -240 -19 -123 -41 -323 -50 -445
-9 -122 -19 -224 -22 -227 -5 -5 -126 8 -276 28 -18 3 -33 1 -33 -4 0 -5 21
-12 48 -15 126 -17 227 -37 240 -47 11 -9 12 -28 7 -82 -4 -39 -8 -72 -10 -74
-1 -1 -44 15 -95 38 -52 22 -98 39 -104 38 -6 -1 -32 2 -59 6 -56 10 -256 -18
-301 -41 -27 -14 -31 -14 -42 2 -11 15 -13 15 -19 -4 -9 -28 -63 -57 -79 -41
-6 6 -13 53 -16 105 -3 66 -8 92 -16 87 -8 -5 -8 -24 -1 -68 7 -40 7 -76 1
-105 l-10 -44 -23 43 c-30 59 -40 139 -17 148 15 6 15 7 -1 19 -17 12 -18 42
-21 377 -2 220 1 396 8 448 20 157 42 275 62 328 l19 52 74 -51 c41 -28 86
-61 100 -74z"/>
<path d="M1780 4125 c0 -10 7 -26 16 -36 13 -14 16 -43 15 -168 -1 -98 2 -151
9 -151 5 0 10 -22 10 -50 0 -27 -4 -50 -10 -50 -6 0 -10 -47 -10 -120 0 -73 4
-120 10 -120 6 0 10 8 10 18 0 9 7 94 15 187 8 94 15 191 15 218 0 51 -16 65
-23 20 -2 -16 -5 20 -6 80 0 70 3 107 10 107 16 0 51 -20 77 -43 l22 -20 0 42
c0 39 -1 41 -16 27 -23 -23 -30 -21 -90 30 -41 36 -54 42 -54 29z"/>
<path d="M1717 4028 c-18 -69 -37 -270 -32 -323 8 -81 36 -237 45 -254 8 -15
16 71 26 259 9 181 -18 402 -39 318z"/>
<path d="M2320 3973 c0 -17 -9 -25 -32 -32 -23 -6 -27 -9 -12 -10 12 -1 43 -4
70 -7 46 -5 47 -4 25 9 -13 8 -30 25 -37 38 -13 24 -13 24 -14 2z"/>
<path d="M1994 3810 c0 -69 1 -97 3 -62 2 34 2 90 0 125 -2 34 -3 6 -3 -63z"/>
<path d="M1920 3818 c0 -36 -3 -87 -7 -113 -5 -38 -3 -46 7 -40 11 7 12 -10 7
-89 -7 -103 4 -121 22 -35 14 62 14 162 1 254 -14 95 -30 107 -30 23z"/>
<path d="M2227 3721 c5 -120 4 -141 -11 -164 -17 -25 -15 -67 3 -67 5 0 16 37
26 83 21 98 23 103 40 81 11 -15 14 -8 20 53 8 81 4 92 -47 127 l-37 25 6
-138z"/>
<path d="M2122 3770 c0 -19 2 -27 5 -17 2 9 2 25 0 35 -3 9 -5 1 -5 -18z"/>
<path d="M2351 3668 c0 -45 3 -57 9 -43 12 28 12 105 0 105 -6 0 -10 -27 -9
-62z"/>
<path d="M2116 3643 c-9 -57 -7 -103 4 -103 6 0 10 30 10 70 0 39 -2 70 -4 70
-2 0 -6 -17 -10 -37z"/>
<path d="M2065 3639 c-2 -8 -8 -47 -13 -86 -6 -55 -5 -73 4 -73 7 0 14 29 18
81 7 75 3 110 -9 78z"/>
<path d="M2696 4380 c-80 -22 -111 -51 -67 -65 22 -7 203 56 209 73 6 18 -59
14 -142 -8z"/>
<path d="M1301 4354 c-29 -37 -27 -79 4 -100 21 -14 31 -15 50 -6 29 14 33 32
6 32 -30 0 -44 25 -37 65 8 42 4 43 -23 9z"/>
<path d="M1276 3993 c-7 -8 3 -70 16 -95 12 -25 51 -22 76 5 12 13 22 25 22
28 0 2 -18 3 -40 1 -38 -4 -40 -2 -46 27 -7 33 -17 45 -28 34z"/>
<path d="M742 3584 c-24 -8 -58 -25 -75 -36 -18 -11 -23 -17 -12 -13 98 33
101 33 191 -14 46 -24 86 -52 90 -63 3 -10 12 -18 20 -18 17 0 74 28 74 36 0
13 -85 94 -99 94 -9 0 -34 7 -56 15 -51 18 -79 18 -133 -1z"/>
<path d="M513 3497 c-76 -21 -88 -31 -52 -40 14 -4 46 7 88 28 75 39 67 41
-36 12z"/>
<path d="M291 3421 c-34 -22 51 -134 116 -155 95 -30 94 -9 -2 73 -47 40 -85
76 -85 82 0 11 -11 11 -29 0z"/>
<path d="M3854 3381 c3 -4 26 -14 51 -21 25 -7 45 -16 45 -20 0 -4 -37 -38
-82 -75 -87 -73 -88 -83 -10 -84 27 -1 45 11 112 75 44 42 80 80 80 83 0 7
-165 52 -188 51 -7 0 -11 -4 -8 -9z"/>
<path d="M570 3336 c-21 -56 -14 -57 85 -16 75 31 74 38 -1 18 -42 -11 -47
-11 -60 6 -13 18 -14 18 -24 -8z"/>
<path d="M2126 3002 c-5 -8 91 -52 115 -52 22 0 6 21 -28 35 -54 23 -80 28
-87 17z"/>
</g>
</svg>
